<svg width="16" height="16" viewBox="0 0 16 16" fill="none" xmlns="http://www.w3.org/2000/svg">
<g clip-path="url(#clip0)">
<path fill-rule="evenodd" clip-rule="evenodd" d="M13.8331 15.9999C14.4774 15.9999 14.9998 15.4775 14.9998 14.8332V1.16654C14.9998 0.522212 14.4774 -0.00012207 13.8331 -0.00012207H9.16642C8.52209 -0.00012207 7.99976 0.522212 7.99976 1.16654V4H5.16667C4.52233 4 4 4.52233 4 5.16667V8H1.16667C0.522335 8 0 8.52234 0 9.16667V14.8333C0 15.4777 0.522334 16 1.16667 16L13.8331 15.9999ZM13.9998 1.16654C13.9998 1.0745 13.9251 0.999878 13.8331 0.999878H9.16642C9.07438 0.999878 8.99976 1.0745 8.99976 1.16654V4H9.83333C10.4777 4 11 4.52233 11 5.16667V14.9999H13.8331C13.9251 14.9999 13.9998 14.9253 13.9998 14.8332V1.16654ZM10 14.9999L7 15V9.17C7 8.52383 6.47617 8 5.83 8H5V5.16667C5 5.07462 5.07462 5 5.16667 5H9.83333C9.92538 5 10 5.07462 10 5.16667V14.9999ZM6 9.17V15H1.16667C1.07462 15 1 14.9254 1 14.8333V9.16667C1 9.07462 1.07462 9 1.16667 9H5.83C5.92389 9 6 9.07611 6 9.17Z" fill="black"/>
</g>
<defs>
<clipPath id="clip0">
<rect width="16" height="16" fill="white"/>
</clipPath>
</defs>
</svg>
