<svg width="1280" height="720" xmlns="http://www.w3.org/2000/svg" xmlns:xlink="http://www.w3.org/1999/xlink" overflow="hidden"><defs><filter id="fx0" x="-10%" y="-10%" width="120%" height="120%" filterUnits="userSpaceOnUse" primitiveUnits="userSpaceOnUse"><feComponentTransfer color-interpolation-filters="sRGB"><feFuncR type="discrete" tableValues="0 0"/><feFuncG type="discrete" tableValues="0 0"/><feFuncB type="discrete" tableValues="0 0"/><feFuncA type="linear" slope="0.4" intercept="0"/></feComponentTransfer><feGaussianBlur stdDeviation="1.77778 1.77778"/></filter><filter id="fx1" x="-10%" y="-10%" width="120%" height="120%" filterUnits="userSpaceOnUse" primitiveUnits="userSpaceOnUse"><feComponentTransfer color-interpolation-filters="sRGB"><feFuncR type="discrete" tableValues="0 0"/><feFuncG type="discrete" tableValues="0 0"/><feFuncB type="discrete" tableValues="0 0"/><feFuncA type="linear" slope="0.4" intercept="0"/></feComponentTransfer><feGaussianBlur stdDeviation="1.77778 1.77778"/></filter><clipPath id="clip2"><rect x="0" y="0" width="1280" height="720"/></clipPath><linearGradient x1="50.8725" y1="20.1104" x2="36.4883" y2="50.9574" gradientUnits="userSpaceOnUse" spreadMethod="reflect" id="fill3"><stop offset="0" stop-color="#00B0F0"/><stop offset="0.55" stop-color="#2F5CAC"/><stop offset="1" stop-color="#3A6FCE"/></linearGradient><clipPath id="clip4"><rect x="-2" y="-2" width="40" height="42"/></clipPath><clipPath id="clip5"><rect x="0" y="0" width="37" height="39"/></clipPath><clipPath id="clip6"><rect x="9" y="7" width="25" height="27"/></clipPath><clipPath id="clip7"><rect x="0" y="0" width="41" height="45"/></clipPath><linearGradient x1="40.9567" y1="24.0399" x2="16.0433" y2="46.9601" gradientUnits="userSpaceOnUse" spreadMethod="reflect" id="fill8"><stop offset="0" stop-color="#1E3E77"/><stop offset="0.5" stop-color="#2F5CAC"/><stop offset="1" stop-color="#3A6FCE"/></linearGradient></defs><g clip-path="url(#clip2)"><rect x="0" y="0" width="1280" height="720" fill="#F2F2F2" fill-opacity="0.501961"/><rect x="0" y="0" width="1280" height="720" fill="#F2F2F2" fill-opacity="0.501961"/><rect x="0" y="110" width="1280" height="132" fill="#D9D9D9" fill-opacity="0.501961"/><path d="M25 364 845.833 364" stroke="#F2F2F2" stroke-width="7.66667" stroke-miterlimit="8" fill="none" fill-rule="evenodd"/><rect x="25" y="68" width="815" height="292" fill="#FFFFFF"/><rect x="25" y="383" width="815" height="292" fill="#FFFFFF"/><rect x="859" y="68" width="396" height="292" fill="#FFFFFF"/><path d="M139 21 151.321 31.4993" stroke="#F2F2F2" stroke-width="4" stroke-miterlimit="8" fill="none" fill-rule="evenodd"/><path d="M43.8372 54.3842 24.8301 35.3772 43.5237 16.6836 62.5307 35.6907Z" fill="url(#fill3)" fill-rule="evenodd"/><path d="M43.9098 45.1788 34.078 35.347 43.4509 25.974 53.2828 35.8059Z" fill="#F2F2F2" fill-rule="evenodd"/><g clip-path="url(#clip4)" filter="url(#fx0)" transform="translate(10 20)"><g clip-path="url(#clip5)"><path d="M7 10.8334C7 8.71628 8.71628 7 10.8334 7L26.1666 7C28.2837 7 30 8.71628 30 10.8334L30 28.1666C30 30.2837 28.2837 32 26.1666 32L10.8334 32C8.71628 32 7 30.2837 7 28.1666Z" fill="#FF0000" fill-rule="evenodd"/></g></g><g clip-path="url(#clip6)" filter="url(#fx1)" transform="translate(8 19)"><g clip-path="url(#clip7)"><path d="M8.73047-0.373535C7.96387-0.00244141 6.96289 0.183105 5.72754 0.183105 4.11621 0.183105 2.84912-0.290527 1.92627-1.23779 1.00342-2.18506 0.541992-3.44727 0.541992-5.02441 0.541992-6.7041 1.06079-8.06641 2.09839-9.11133 3.13599-10.1562 4.48242-10.6787 6.1377-10.6787 7.16309-10.6787 8.02734-10.5493 8.73047-10.2905L8.73047-8.0127C8.02734-8.43262 7.22656-8.64258 6.32812-8.64258 5.3418-8.64258 4.5459-8.33252 3.94043-7.7124 3.33496-7.09228 3.03223-6.25244 3.03223-5.19287 3.03223-4.17725 3.31787-3.36792 3.88916-2.76489 4.46045-2.16187 5.22949-1.86035 6.19629-1.86035 7.11914-1.86035 7.96387-2.08496 8.73047-2.53418Z" fill="#FFFFFF" transform="translate(15.5892 26)"/></g></g><path d="M17 26.8334C17 24.7163 18.7163 23 20.8334 23L36.1666 23C38.2837 23 40 24.7163 40 26.8334L40 44.1666C40 46.2837 38.2837 48 36.1666 48L20.8334 48C18.7163 48 17 46.2837 17 44.1666Z" fill="url(#fill8)" fill-rule="evenodd"/><text fill="#FFFFFF" font-family="Segoe UI,Segoe UI_MSFontService,sans-serif" font-weight="700" font-size="15" transform="translate(23.5892 41)">C</text><path d="M0 0 17.8504 0.000209974" stroke="#F2F2F2" stroke-width="4" stroke-miterlimit="8" fill="none" fill-rule="evenodd" transform="matrix(1 0 0 -1 45 36.0002)"/><rect x="859" y="383" width="396" height="292" fill="#FFFFFF"/></g></svg>