<svg width="1280" height="720" xmlns="http://www.w3.org/2000/svg" xmlns:xlink="http://www.w3.org/1999/xlink" overflow="hidden"><defs><filter id="fx0" x="-10%" y="-10%" width="120%" height="120%" filterUnits="userSpaceOnUse" primitiveUnits="userSpaceOnUse"><feComponentTransfer color-interpolation-filters="sRGB"><feFuncR type="discrete" tableValues="0 0"/><feFuncG type="discrete" tableValues="0 0"/><feFuncB type="discrete" tableValues="0 0"/><feFuncA type="linear" slope="0.4" intercept="0"/></feComponentTransfer><feGaussianBlur stdDeviation="1.77778 1.77778"/></filter><filter id="fx1" x="-10%" y="-10%" width="120%" height="120%" filterUnits="userSpaceOnUse" primitiveUnits="userSpaceOnUse"><feComponentTransfer color-interpolation-filters="sRGB"><feFuncR type="discrete" tableValues="0 0"/><feFuncG type="discrete" tableValues="0 0"/><feFuncB type="discrete" tableValues="0 0"/><feFuncA type="linear" slope="0.4" intercept="0"/></feComponentTransfer><feGaussianBlur stdDeviation="1.77778 1.77778"/></filter><clipPath id="clip2"><rect x="0" y="0" width="1280" height="720"/></clipPath><clipPath id="clip3"><rect x="854" y="73" width="37" height="38"/></clipPath><clipPath id="clip4"><rect x="854" y="73" width="37" height="38"/></clipPath><clipPath id="clip5"><rect x="854" y="73" width="37" height="38"/></clipPath><clipPath id="clip6"><rect x="444" y="73" width="38" height="38"/></clipPath><clipPath id="clip7"><rect x="444" y="73" width="38" height="38"/></clipPath><clipPath id="clip8"><rect x="444" y="73" width="38" height="38"/></clipPath><clipPath id="clip9"><rect x="48" y="73" width="38" height="38"/></clipPath><clipPath id="clip10"><rect x="48" y="73" width="38" height="38"/></clipPath><clipPath id="clip11"><rect x="48" y="73" width="38" height="38"/></clipPath><linearGradient x1="50.8725" y1="20.1104" x2="36.4883" y2="50.9574" gradientUnits="userSpaceOnUse" spreadMethod="reflect" id="fill12"><stop offset="0" stop-color="#00B0F0"/><stop offset="0.55" stop-color="#2F5CAC"/><stop offset="1" stop-color="#3A6FCE"/></linearGradient><clipPath id="clip13"><rect x="-2" y="-2" width="40" height="42"/></clipPath><clipPath id="clip14"><rect x="0" y="0" width="37" height="39"/></clipPath><clipPath id="clip15"><rect x="9" y="7" width="25" height="27"/></clipPath><clipPath id="clip16"><rect x="0" y="0" width="41" height="45"/></clipPath><linearGradient x1="40.9567" y1="24.0399" x2="16.0433" y2="46.9601" gradientUnits="userSpaceOnUse" spreadMethod="reflect" id="fill17"><stop offset="0" stop-color="#1E3E77"/><stop offset="0.5" stop-color="#2F5CAC"/><stop offset="1" stop-color="#3A6FCE"/></linearGradient></defs><g clip-path="url(#clip2)"><rect x="0" y="0" width="1280" height="720" fill="#F2F2F2" fill-opacity="0.501961"/><rect x="0" y="0" width="1280" height="720" fill="#F2F2F2" fill-opacity="0.501961"/><rect x="0" y="110" width="1280" height="132" fill="#D9D9D9" fill-opacity="0.501961"/><path d="M25.6 69.6888 435.2 69.6888 435.2 158.4 25.6 158.4Z" fill="#FFFFFF" fill-rule="evenodd"/><path d="M435.2 69.6888 844.8 69.6888 844.8 158.4 435.2 158.4Z" fill="#FFFFFF" fill-rule="evenodd"/><path d="M844.8 69.6888 1254.4 69.6888 1254.4 158.4 844.8 158.4Z" fill="#FFFFFF" fill-rule="evenodd"/><path d="M435.2 69.0222 435.2 159.067" stroke="#E7E6E6" stroke-width="1.33333" stroke-linejoin="round" stroke-miterlimit="10" fill="none" fill-rule="evenodd"/><path d="M844.8 69.0222 844.8 159.067" stroke="#E7E6E6" stroke-width="1.33333" stroke-linejoin="round" stroke-miterlimit="10" fill="none" fill-rule="evenodd"/><path d="M25.6 69.0222 25.6 159.067" stroke="#FFFFFF" stroke-width="1.33333" stroke-linejoin="round" stroke-miterlimit="10" fill="none" fill-rule="evenodd"/><path d="M1254.4 69.0222 1254.4 159.067" stroke="#FFFFFF" stroke-width="1.33333" stroke-linejoin="round" stroke-miterlimit="10" fill="none" fill-rule="evenodd"/><path d="M24.9333 69.6888 1255.07 69.6888" stroke="#FFFFFF" stroke-width="1.33333" stroke-linejoin="round" stroke-miterlimit="10" fill="none" fill-rule="evenodd"/><path d="M24.9333 158.4 1255.07 158.4" stroke="#FFFFFF" stroke-width="1.33333" stroke-linejoin="round" stroke-miterlimit="10" fill="none" fill-rule="evenodd"/><g clip-path="url(#clip3)"><g clip-path="url(#clip4)"><g clip-path="url(#clip5)"><path d="M15.2382 25.1654C15.1335 24.98 14.8983 24.9146 14.7129 25.0193 14.5275 25.124 14.4621 25.3593 14.5668 25.5446L16.1039 28.2622C16.1062 28.2665 16.1039 28.2688 16.0992 28.268 10.4757 27.0636 6.89329 21.5285 8.09768 15.905 8.22741 15.2993 8.41091 14.7063 8.64605 14.1332 8.72714 13.9363 8.6333 13.711 8.43639 13.6299 8.23948 13.5488 8.01412 13.6426 7.93303 13.8395 5.58777 19.5553 8.32014 26.0902 14.0359 28.4354 14.593 28.664 15.1677 28.8472 15.7543 28.9833 15.7597 28.9833 15.7601 28.9876 15.7543 28.9899L13.2198 30.424C13.0344 30.5289 12.9691 30.7642 13.0739 30.9495 13.1787 31.1349 13.414 31.2003 13.5994 31.0954L17.0474 29.1452C17.2326 29.0404 17.2979 28.8053 17.1931 28.62 17.1931 28.62 17.1931 28.6199 17.1931 28.6199Z" transform="matrix(1 0 0 1.02703 854 73)"/><path d="M31.874 15.6344 28.4576 13.6303C28.2741 13.5227 28.0381 13.5841 27.9304 13.7675L25.9227 17.1896C25.8151 17.3731 25.8766 17.6091 26.0599 17.7168 26.1189 17.7518 26.1861 17.7701 26.2546 17.77 26.3914 17.7701 26.518 17.6976 26.5872 17.5796L28.1655 14.8913C28.1678 14.8871 28.1713 14.8875 28.1728 14.8913 29.6641 19.5602 27.7091 24.638 23.4719 27.1013 22.2979 27.7821 21.0014 28.2252 19.6562 28.4052 19.4453 28.4337 19.2974 28.6278 19.3259 28.8387 19.3517 29.0295 19.5142 29.172 19.7067 29.1726 19.7241 29.1725 19.7415 29.1715 19.7588 29.1695 25.8811 28.3418 30.1733 22.7077 29.3457 16.5854 29.2651 15.9894 29.1366 15.4008 28.9614 14.8254 28.9614 14.8204 28.9614 14.8185 28.9668 14.8212L31.4851 16.2993C31.6644 16.4139 31.9027 16.3616 32.0174 16.1822 32.1321 16.0029 32.0797 15.7645 31.9004 15.6499 31.8918 15.6444 31.8829 15.6392 31.874 15.6344Z" transform="matrix(1 0 0 1.02703 854 73)"/><path d="M9.69207 11.8782 13.6619 11.8982 13.6619 11.8982C13.8747 11.8987 14.0477 11.7266 14.0482 11.5137 14.0488 11.3009 13.8767 11.1279 13.6638 11.1274L10.565 11.1116C10.56 11.1116 10.5589 11.1089 10.562 11.105 14.4221 6.84481 21.005 6.52056 25.2651 10.3807 25.72 10.7929 26.1375 11.2444 26.5128 11.7302 26.6419 11.8994 26.8838 11.932 27.053 11.8028 27.2222 11.6738 27.2548 11.4319 27.1257 11.2626 27.1249 11.2616 27.1241 11.2606 27.1233 11.2596 23.3461 6.37098 16.3211 5.46999 11.4325 9.24719 10.953 9.61773 10.5043 10.0266 10.091 10.4698 10.0875 10.4737 10.0844 10.4725 10.0844 10.4675L10.0991 7.53374C10.0991 7.32087 9.92652 7.14832 9.71366 7.14832L9.71366 7.14832C9.50156 7.14832 9.32932 7.31972 9.32824 7.53181L9.30858 11.4927C9.30858 11.7048 9.47998 11.8771 9.69207 11.8782Z" transform="matrix(1 0 0 1.02703 854 73)"/><path d="M20.1708 20.2733 21.3417 19.6042 21.3417 18.4333 20.1708 19.1024 20.1708 20.2733Z" transform="matrix(1 0 0 1.02703 854 73)"/><path d="M24.6366 14.7341 18.727 11.1466 12.817 14.7341 12.817 21.4504 18.727 25.0371 24.6366 21.4504ZM23.5104 14.9511 21.7263 16.0333 16.9171 13.1473 18.7286 12.0485ZM18.7289 17.8533 13.9475 14.9511 16.1744 13.5994 20.9836 16.4847ZM13.5879 15.6356 18.3416 18.5212 18.3416 23.9016 13.5879 21.0164ZM19.1124 23.9016 19.1124 18.5212 23.8658 15.6356 23.8658 21.0164Z" transform="matrix(1 0 0 1.02703 854 73)"/></g></g></g><g clip-path="url(#clip6)"><g clip-path="url(#clip7)"><g clip-path="url(#clip8)"><path d="M474.717 92.4976 463.502 81.2848C463.208 80.9813 462.804 80.8083 462.381 80.8043L455.012 80.8043C453.245 80.8092 451.813 82.2405 451.808 84.0077L451.808 91.3362C451.796 91.7623 451.972 92.1722 452.289 92.4576L463.502 103.67C464.119 104.3 465.129 104.312 465.76 103.696 465.768 103.687 465.777 103.679 465.785 103.67L474.717 94.74C475.317 94.1132 475.317 93.1244 474.717 92.4976ZM474.157 94.1803 465.226 103.11C464.919 103.432 464.409 103.443 464.088 103.136 464.079 103.128 464.071 103.119 464.062 103.11L452.848 91.8975 452.83 91.8789 452.81 91.8615C452.667 91.725 452.591 91.5334 452.6 91.3362L452.6 84.0077C452.605 82.6778 453.682 81.6011 455.012 81.5959L462.381 81.5959C462.594 81.5995 462.797 81.6892 462.943 81.8445L474.157 93.0573C474.448 93.375 474.448 93.8625 474.157 94.1803Z"/><path d="M457.644 93.8985 464.922 86.6212 465.481 87.181 458.204 94.4583Z"/><path d="M460.443 96.6975 467.72 89.4202 468.28 89.9799 461.003 97.2572Z"/><path d="M463.243 99.4964 470.52 92.2191 471.08 92.7789 463.802 100.056Z"/><path d="M455.125 82.519C454.25 82.5192 453.542 83.2283 453.542 84.1028 453.542 84.9772 454.251 85.6859 455.126 85.6857 456 85.6854 456.709 84.9763 456.709 84.1019 456.709 83.682 456.542 83.2794 456.245 82.9825 455.948 82.6851 455.545 82.5183 455.125 82.519ZM455.685 84.662C455.376 84.9711 454.875 84.971 454.565 84.6618 454.256 84.3526 454.256 83.8513 454.566 83.5422 454.875 83.2332 455.376 83.2332 455.685 83.5422 455.994 83.8473 455.998 84.3453 455.693 84.6545 455.69 84.6571 455.688 84.6595 455.685 84.662Z"/></g></g></g><g clip-path="url(#clip9)"><g clip-path="url(#clip10)"><g clip-path="url(#clip11)"><path d="M79.8733 84.4701 80.4979 87.6458 81.3046 87.6458 80.4979 83.5391 59.875 87.6387C59.8532 87.6431 59.8536 87.6462 59.875 87.6462L63.8971 87.6462Z"/><path d="M75.1759 80.1674 76.3686 83.1492 77.1602 82.9908 75.6165 79.1315 54.8115 87.6387C54.8012 87.6431 54.802 87.6462 54.8115 87.6462L56.8833 87.6462Z"/><path d="M84.4214 88.8333 49.5833 88.8333 49.5833 104.667 84.4214 104.667ZM83.6298 103.875 50.375 103.875 50.375 89.625 83.6298 89.625Z"/><path d="M67.0024 100.312C68.5766 100.312 69.8524 98.7177 69.8524 96.75 69.8524 94.7823 68.5762 93.1875 67.0024 93.1875 65.4285 93.1875 64.1524 94.7823 64.1524 96.75 64.1524 98.7177 65.4281 100.312 67.0024 100.312ZM67.0024 93.9792C68.1376 93.9792 69.0607 95.2221 69.0607 96.75 69.0607 98.2779 68.1372 99.5208 67.0024 99.5208 65.8675 99.5208 64.944 98.2779 64.944 96.75 64.944 95.2221 65.8675 93.9792 67.0024 93.9792Z"/><path d="M56.6759 98.2775C57.5217 98.5122 58.3975 98.0167 58.6322 97.171 58.7093 96.8929 58.7093 96.599 58.6321 96.3209 58.4865 95.7872 58.0697 95.3702 57.536 95.2245 56.6904 94.9892 55.8142 95.484 55.5789 96.3296 55.5014 96.6084 55.5014 96.9031 55.579 97.1819 55.7248 97.7156 56.142 98.1323 56.6759 98.2775ZM57.1042 95.9583C57.5414 95.9583 57.8958 96.3128 57.8958 96.75 57.8958 97.1872 57.5414 97.5417 57.1042 97.5417 56.6669 97.5417 56.3125 97.1872 56.3125 96.75 56.3125 96.3128 56.6669 95.9583 57.1042 95.9583Z"/><path d="M77.2228 98.3021C77.9737 98.1271 78.4995 97.45 78.4831 96.6791L78.4831 96.6791C78.4934 96.1563 78.2211 95.6685 77.7706 95.403 77.0199 94.9332 76.0305 95.1609 75.5606 95.9115 75.4035 96.1627 75.319 96.4525 75.3165 96.7488 75.3166 97.6248 76.0268 98.3348 76.9028 98.3347 77.0103 98.3347 77.1175 98.3238 77.2228 98.3021ZM76.8998 95.9583C77.337 95.9583 77.6915 96.3128 77.6915 96.75 77.6915 97.1872 77.337 97.5417 76.8998 97.5417 76.4626 97.5417 76.1081 97.1872 76.1081 96.75 76.1081 96.3128 76.4626 95.9583 76.8998 95.9583Z"/><path d="M80.8585 102.292 82.046 101.104 82.046 92.3958 80.8585 91.2083 53.5417 91.2083 51.9583 92.7917 51.9583 100.708 53.5417 102.292ZM52.75 93.1202 53.8702 92 80.5308 92 81.2544 92.7236 81.2544 100.777 80.5308 101.5 53.8702 101.5 52.75 100.381Z"/></g></g></g><path d="M0 0 649.9 3.42205" stroke="#F2F2F2" stroke-width="8" stroke-miterlimit="8" fill="none" fill-rule="evenodd" transform="matrix(1 0 0 -1 605 430.422)"/><rect x="615" y="251" width="639" height="176" fill="#FFFFFF"/><rect x="26" y="251" width="571" height="444" fill="#FFFFFF"/><rect x="615" y="445" width="639" height="250" fill="#FFFFFF"/><path d="M43.8372 54.3842 24.8301 35.3772 43.5237 16.6836 62.5307 35.6907Z" fill="url(#fill12)" fill-rule="evenodd"/><path d="M43.9098 45.1788 34.078 35.347 43.4509 25.974 53.2828 35.8059Z" fill="#F2F2F2" fill-rule="evenodd"/><g clip-path="url(#clip13)" filter="url(#fx0)" transform="translate(10 20)"><g clip-path="url(#clip14)"><path d="M7 10.8334C7 8.71628 8.71628 7 10.8334 7L26.1666 7C28.2837 7 30 8.71628 30 10.8334L30 28.1666C30 30.2837 28.2837 32 26.1666 32L10.8334 32C8.71628 32 7 30.2837 7 28.1666Z" fill="#FF0000" fill-rule="evenodd"/></g></g><g clip-path="url(#clip15)" filter="url(#fx1)" transform="translate(8 19)"><g clip-path="url(#clip16)"><path d="M8.73047-0.373535C7.96387-0.00244141 6.96289 0.183105 5.72754 0.183105 4.11621 0.183105 2.84912-0.290527 1.92627-1.23779 1.00342-2.18506 0.541992-3.44727 0.541992-5.02441 0.541992-6.7041 1.06079-8.06641 2.09839-9.11133 3.13599-10.1562 4.48242-10.6787 6.1377-10.6787 7.16309-10.6787 8.02734-10.5493 8.73047-10.2905L8.73047-8.0127C8.02734-8.43262 7.22656-8.64258 6.32812-8.64258 5.3418-8.64258 4.5459-8.33252 3.94043-7.7124 3.33496-7.09228 3.03223-6.25244 3.03223-5.19287 3.03223-4.17725 3.31787-3.36792 3.88916-2.76489 4.46045-2.16187 5.22949-1.86035 6.19629-1.86035 7.11914-1.86035 7.96387-2.08496 8.73047-2.53418Z" fill="#FFFFFF" transform="translate(15.5892 26)"/></g></g><path d="M17 26.8334C17 24.7163 18.7163 23 20.8334 23L36.1666 23C38.2837 23 40 24.7163 40 26.8334L40 44.1666C40 46.2837 38.2837 48 36.1666 48L20.8334 48C18.7163 48 17 46.2837 17 44.1666Z" fill="url(#fill17)" fill-rule="evenodd"/><text fill="#FFFFFF" font-family="Segoe UI,Segoe UI_MSFontService,sans-serif" font-weight="700" font-size="15" transform="translate(23.5892 41)">C</text><path d="M0 0 17.8504 0.000209974" stroke="#F2F2F2" stroke-width="4" stroke-miterlimit="8" fill="none" fill-rule="evenodd" transform="matrix(1 0 0 -1 45 36.0002)"/></g></svg>